<svg xmlns="http://www.w3.org/2000/svg" viewBox="0 0 279.89 109"><defs><style>.cls-1{fill:#646464;}.cls-2{fill:#5c546a;}.cls-3{fill:#de8229;}.cls-4{fill:#8a8895;}.cls-5{fill:#ffd100;}.cls-6{fill:#ff9500;}.cls-7{fill:#ffca4f;}.cls-8{fill:#0e9347;}.cls-9{fill:#b5eab9;}.cls-10{fill:#3bb54a;}</style></defs><title>billete-md</title><g id="Capa_2" data-name="Capa 2"><g id="Controles_bootstrap" data-name="Controles bootstrap"><path class="cls-1" d="M256.27,85.38c-13,0-23.61-9-23.61-20a1.82,1.82,0,0,1,1.81-1.82h43.6a1.82,1.82,0,0,1,1.82,1.82C279.89,76.42,269.3,85.38,256.27,85.38ZM236.41,67.22c1.11,8.16,9.6,14.53,19.86,14.53S275,75.38,276.14,67.22Z"/><path class="cls-2" d="M165.44,67.22a1.7,1.7,0,0,1-.79-.19,1.81,1.81,0,0,1-.84-2.42L184.1,22.82a1.82,1.82,0,0,1,3.27,1.59L167.08,66.19A1.83,1.83,0,0,1,165.44,67.22Z"/><path class="cls-2" d="M209,67.22a1.81,1.81,0,0,1-1.63-1l-20.3-41.78a1.82,1.82,0,0,1,3.27-1.59l20.3,41.79a1.81,1.81,0,0,1-.85,2.42A1.7,1.7,0,0,1,209,67.22Z"/><path class="cls-2" d="M234.47,67.22a1.76,1.76,0,0,1-.79-.19,1.81,1.81,0,0,1-.84-2.42l20.3-41.79a1.82,1.82,0,1,1,3.27,1.59l-20.3,41.78A1.82,1.82,0,0,1,234.47,67.22Z"/><path class="cls-2" d="M278.08,67.22a1.81,1.81,0,0,1-1.64-1l-20.3-41.78a1.82,1.82,0,0,1,3.27-1.59l20.3,41.79a1.81,1.81,0,0,1-.84,2.42A1.76,1.76,0,0,1,278.08,67.22Z"/><path class="cls-3" d="M183.61,20.83a2,2,0,0,1-.84-.2,16.39,16.39,0,0,1-4.05-3L175.06,14a1.82,1.82,0,1,1,2.57-2.57l3.65,3.66a13,13,0,0,0,3.16,2.31,1.82,1.82,0,0,1-.83,3.43Z"/><path class="cls-3" d="M190.87,22.44a1.82,1.82,0,0,1-.07-3.64,12.55,12.55,0,0,0,4.92-1.21l19.81-9.38a1.81,1.81,0,1,1,1.55,3.28l-19.81,9.38A16.12,16.12,0,0,1,191,22.43Z"/><path class="cls-3" d="M259.91,20.83a1.82,1.82,0,0,1-.84-3.43,12.59,12.59,0,0,0,3.16-2.31l3.66-3.66A1.82,1.82,0,0,1,268.46,14l-3.66,3.66a16.44,16.44,0,0,1-4.06,3A1.88,1.88,0,0,1,259.91,20.83Z"/><path class="cls-3" d="M252.64,22.44h-.07a16.21,16.21,0,0,1-6.33-1.56l-19.81-9.38A1.82,1.82,0,1,1,228,8.21l19.81,9.38a12.51,12.51,0,0,0,4.92,1.21,1.82,1.82,0,0,1-.08,3.64Z"/><polyline class="cls-2" points="218.13 94.47 218.13 11.62 225.39 11.62 225.39 94.47"/><path class="cls-4" d="M221.76,92.65a14.55,14.55,0,0,0-14.54,14.53,1.82,1.82,0,0,0,3.64,0h21.8a1.82,1.82,0,1,0,3.63,0A14.55,14.55,0,0,0,221.76,92.65Z"/><path class="cls-2" d="M243.56,109H200a1.82,1.82,0,1,1,0-3.63h43.6a1.82,1.82,0,0,1,0,3.63Z"/><path class="cls-5" d="M209,63.58h-43.6a1.83,1.83,0,0,0-1.82,1.82c0,11,10.6,20,23.62,20s23.62-9,23.62-20A1.82,1.82,0,0,0,209,63.58Z"/><path class="cls-6" d="M165.44,63.58a1.83,1.83,0,0,0-1.82,1.82c0,11,10.6,20,23.62,20V63.58Z"/><path class="cls-5" d="M278.07,63.58h-43.6a1.82,1.82,0,0,0-1.81,1.82c0,11,10.59,20,23.61,20s23.62-9,23.62-20A1.82,1.82,0,0,0,278.07,63.58Z"/><path class="cls-6" d="M234.47,63.58a1.82,1.82,0,0,0-1.81,1.82c0,11,10.59,20,23.61,20V63.58Z"/><circle class="cls-4" cx="187.24" cy="19.98" r="5.45"/><circle class="cls-4" cx="256.27" cy="19.98" r="5.45"/><circle class="cls-4" cx="221.76" cy="7.27" r="7.27"/><circle class="cls-2" cx="221.76" cy="7.27" r="3.63"/><rect class="cls-7" y="88.02" width="135.96" height="13.31" rx="4.23"/><rect class="cls-8" y="30.85" width="135.96" height="65.66" rx="5.28"/><polygon class="cls-9" points="22.2 55.64 14.24 55.64 14.24 42.33 31.55 42.33 31.55 48.48 22.2 48.48 22.2 55.64"/><polygon class="cls-9" points="31.55 85.04 14.24 85.04 14.24 71.72 22.2 71.72 22.2 78.89 31.55 78.89 31.55 85.04"/><polygon class="cls-9" points="121.72 55.64 113.75 55.64 113.75 48.48 104.41 48.48 104.41 42.33 121.72 42.33 121.72 55.64"/><polygon class="cls-9" points="121.72 85.04 104.41 85.04 104.41 78.89 113.75 78.89 113.75 71.72 121.72 71.72 121.72 85.04"/><path class="cls-9" d="M97.19,63.68c0,12.43-13.11,22.55-29.21,22.55h0c-16.1,0-29.2-10.12-29.2-22.55S51.87,41.14,68,41.13h0C84.08,41.13,97.19,51.25,97.19,63.68Z"/><path class="cls-10" d="M77.92,67.09a4.91,4.91,0,0,1-.8,2.85A5.86,5.86,0,0,1,75,71.78a10.11,10.11,0,0,1-2.87,1v3.78h-8V72.67c-.35-.06-.7-.12-1.05-.2a26.91,26.91,0,0,1-2.68-.69,18.57,18.57,0,0,1-2.39-.9l2.89-4.53a22.36,22.36,0,0,0,2.51,1,21.58,21.58,0,0,0,2.49.72,12.65,12.65,0,0,0,2,.29q.39,0,.78,0a3.63,3.63,0,0,0,1.53-.23.67.67,0,0,0,.43-.6.78.78,0,0,0-.43-.67,4.22,4.22,0,0,0-1.19-.49c-.34-.1-.71-.19-1.12-.29L67.36,66c-.65-.14-1.35-.31-2.08-.5a20.1,20.1,0,0,1-2.78-.92,7.78,7.78,0,0,1-1.93-1.11,4,4,0,0,1-1.11-1.42,4.39,4.39,0,0,1-.36-1.83,5.09,5.09,0,0,1,.74-2.76,6.17,6.17,0,0,1,2-2,9.46,9.46,0,0,1,2.3-1V50.83h8v3.46c.39.08.77.17,1.15.27q1.19.3,2.22.66l1.85.68-2.89,4.27a20.11,20.11,0,0,0-2.13-.85c-.61-.21-1.31-.41-2.07-.6A9.91,9.91,0,0,0,68,58.44h0a4.06,4.06,0,0,0-1.4.22.74.74,0,0,0-.53.71.73.73,0,0,0,.31.61,2.94,2.94,0,0,0,.89.44c.22.07.46.15.73.22l.7.16,1.9.45a30.53,30.53,0,0,1,3,.88,10.23,10.23,0,0,1,2.32,1.13,4.54,4.54,0,0,1,1.48,1.58A4.62,4.62,0,0,1,77.92,67.09Z"/><path class="cls-8" d="M68,58.44h0V50.83h4.15v3.46c.39.08.77.17,1.15.27q1.19.3,2.22.66l1.85.68-2.89,4.27a20.11,20.11,0,0,0-2.13-.85c-.61-.21-1.31-.41-2.07-.6A9.91,9.91,0,0,0,68,58.44Z"/><path class="cls-8" d="M77.92,67.09a4.91,4.91,0,0,1-.8,2.85A5.86,5.86,0,0,1,75,71.78a10.11,10.11,0,0,1-2.87,1v3.78H68V68.39q.39,0,.78,0a3.63,3.63,0,0,0,1.53-.23.67.67,0,0,0,.43-.6.78.78,0,0,0-.43-.67,4.22,4.22,0,0,0-1.19-.49c-.34-.1-.71-.19-1.12-.29v-5.5l.7.16,1.9.45a30.53,30.53,0,0,1,3,.88,10.23,10.23,0,0,1,2.32,1.13,4.54,4.54,0,0,1,1.48,1.58A4.62,4.62,0,0,1,77.92,67.09Z"/></g></g></svg>