<svg xmlns="http://www.w3.org/2000/svg" viewBox="0 0 135.96 69.49"><defs><style>.cls-1{fill:#ffca4f;}.cls-2{fill:#0e9347;}.cls-3{fill:#b5eab9;}.cls-4{fill:#3bb54a;}</style></defs><title>Recurso 3</title><g id="Capa_2" data-name="Capa 2"><g id="Controles_bootstrap" data-name="Controles bootstrap"><rect class="cls-1" y="56.17" width="135.96" height="13.31" rx="4.23"/><rect class="cls-2" width="135.96" height="65.66" rx="5.28"/><polygon class="cls-3" points="22.2 24.79 14.24 24.79 14.24 11.47 31.55 11.47 31.55 17.62 22.2 17.62 22.2 24.79"/><polygon class="cls-3" points="31.55 54.18 14.24 54.18 14.24 40.87 22.2 40.87 22.2 48.03 31.55 48.03 31.55 54.18"/><polygon class="cls-3" points="121.72 24.79 113.75 24.79 113.75 17.62 104.41 17.62 104.41 11.47 121.72 11.47 121.72 24.79"/><polygon class="cls-3" points="121.72 54.18 104.41 54.18 104.41 48.03 113.75 48.03 113.75 40.87 121.72 40.87 121.72 54.18"/><path class="cls-3" d="M97.19,32.83c0,12.43-13.11,22.55-29.21,22.55h0c-16.1,0-29.2-10.12-29.2-22.55S51.87,10.28,68,10.28h0C84.08,10.28,97.19,20.39,97.19,32.83Z"/><path class="cls-4" d="M77.92,36.24a4.91,4.91,0,0,1-.8,2.85A5.86,5.86,0,0,1,75,40.93a10.43,10.43,0,0,1-2.87,1v3.78h-8V41.82l-1.05-.2a26.91,26.91,0,0,1-2.68-.69A20.17,20.17,0,0,1,58,40l2.89-4.54a22.4,22.4,0,0,0,2.51,1,21.67,21.67,0,0,0,2.49.71,11.65,11.65,0,0,0,2,.3l.78,0a3.66,3.66,0,0,0,1.53-.22.67.67,0,0,0,.43-.6.81.81,0,0,0-.43-.68,4.91,4.91,0,0,0-1.19-.49c-.34-.09-.71-.19-1.12-.28l-.61-.14c-.65-.14-1.35-.31-2.08-.5a21.54,21.54,0,0,1-2.78-.92,8.11,8.11,0,0,1-1.93-1.11,4,4,0,0,1-1.11-1.42,4.39,4.39,0,0,1-.36-1.83,5.09,5.09,0,0,1,.74-2.76,6.07,6.07,0,0,1,2-2,9.48,9.48,0,0,1,2.3-1V20h8v3.46c.39.08.77.17,1.15.27q1.19.3,2.22.66c.68.24,1.3.46,1.85.68l-2.89,4.27a20.11,20.11,0,0,0-2.13-.85c-.61-.22-1.31-.41-2.07-.6A9.38,9.38,0,0,0,68,27.59h0a3.86,3.86,0,0,0-1.4.21.75.75,0,0,0-.53.72.73.73,0,0,0,.31.61,3.19,3.19,0,0,0,.89.44l.73.21c.21.06.45.12.7.17l1.9.45a30.53,30.53,0,0,1,3,.88,10.23,10.23,0,0,1,2.32,1.12,4.27,4.27,0,0,1,2,3.84Z"/><path class="cls-2" d="M68,27.59h0V20h4.15v3.46c.39.08.77.17,1.15.27q1.19.3,2.22.66c.68.24,1.3.46,1.85.68l-2.89,4.27a20.11,20.11,0,0,0-2.13-.85c-.61-.22-1.31-.41-2.07-.6A9.38,9.38,0,0,0,68,27.59Z"/><path class="cls-2" d="M77.92,36.24a4.91,4.91,0,0,1-.8,2.85A5.86,5.86,0,0,1,75,40.93a10.43,10.43,0,0,1-2.87,1v3.78H68V37.54l.78,0a3.66,3.66,0,0,0,1.53-.22.67.67,0,0,0,.43-.6.81.81,0,0,0-.43-.68,4.91,4.91,0,0,0-1.19-.49c-.34-.09-.71-.19-1.12-.28V29.78c.21.06.45.12.7.17l1.9.45a30.53,30.53,0,0,1,3,.88,10.23,10.23,0,0,1,2.32,1.12,4.27,4.27,0,0,1,2,3.84Z"/></g></g></svg>