<svg xmlns="http://www.w3.org/2000/svg" viewBox="0 0 313 108"><defs><style>.cls-1{fill:#c9c9ba;}.cls-2{fill:#f29c1f;}.cls-3{fill:#575c55;}.cls-4{fill:#98a5a8;}.cls-5{fill:#004967;}.cls-6{fill:#fffef9;}</style></defs><title>ISR-md</title><g id="Capa_2" data-name="Capa 2"><g id="Controles_bootstrap" data-name="Controles bootstrap"><path class="cls-1" d="M292.12,107.34H123.25a6.25,6.25,0,0,1-6.25-6.26V32.29A6.25,6.25,0,0,1,123.25,26H292.12a6.25,6.25,0,0,1,6.25,6.26v68.79A6.25,6.25,0,0,1,292.12,107.34Z"/><path class="cls-2" d="M254.59,57.3H192.05a3.13,3.13,0,0,1-3.13-3.12h0a3.13,3.13,0,0,1,3.13-3.13h62.54a3.13,3.13,0,0,1,3.13,3.13h0A3.13,3.13,0,0,1,254.59,57.3Z"/><path class="cls-3" d="M170.07,76.48c0-6.94-4.1-11.2-12.29-13l-2.89-.57V51a6.84,6.84,0,0,1,4.81,3.51,4.33,4.33,0,1,0,7.62-4.12c-2.33-3.71-6.7-6.19-12.42-6.83V41.48a2.94,2.94,0,1,0-5.88,0v2.06c-9.1,1-14.41,6-14.41,13.58,0,6.66,4.13,11.11,11.84,12.9l2.57.6V83.17a7.55,7.55,0,0,1-5.55-3.69,4.38,4.38,0,0,0-3.87-2.39h-.44a4.33,4.33,0,0,0-3.74,6.54c2.4,3.88,7.14,6.33,13.6,6.87v1.39a2.94,2.94,0,1,0,5.88,0V90.47C164.6,89.47,170.07,84.46,170.07,76.48ZM143.86,56.32c0-2.8,2.11-4.91,5.15-5.38V61.69C145.65,60.77,143.86,58.93,143.86,56.32Zm11,27V71.74c4.17.93,6.12,2.79,6.12,5.77C161,80.75,158.76,82.88,154.89,83.28Z"/><path class="cls-2" d="M285.86,44.8H192.05a3.13,3.13,0,0,1-3.13-3.13h0a3.13,3.13,0,0,1,3.13-3.13h93.81A3.13,3.13,0,0,1,289,41.67h0A3.13,3.13,0,0,1,285.86,44.8Z"/><path class="cls-4" d="M255.23,69.81H192.69a3.13,3.13,0,0,1-3.13-3.13h0a3.13,3.13,0,0,1,3.13-3.12h62.54a3.12,3.12,0,0,1,3.12,3.12h0A3.13,3.13,0,0,1,255.23,69.81Z"/><path class="cls-4" d="M249,82.32H192.69a3.13,3.13,0,0,1-3.13-3.13h0a3.13,3.13,0,0,1,3.13-3.12H249a3.13,3.13,0,0,1,3.13,3.12h0A3.13,3.13,0,0,1,249,82.32Z"/><path class="cls-4" d="M255.23,94.83H192.69a3.13,3.13,0,0,1-3.13-3.13h0a3.13,3.13,0,0,1,3.13-3.13h62.54a3.13,3.13,0,0,1,3.12,3.13h0A3.13,3.13,0,0,1,255.23,94.83Z"/><path class="cls-4" d="M305.67,25a1.31,1.31,0,0,1-.91-.37L302,21.87a1.29,1.29,0,0,1,1.82-1.82l2.74,2.74a1.29,1.29,0,0,1,0,1.82,1.32,1.32,0,0,1-.92.37"/><path class="cls-5" d="M240.12,72.86h0a21.43,21.43,0,0,1,6.2-17.12L298.39,3.66l10.93,10.93L257.24,66.66a21.43,21.43,0,0,1-17.12,6.2"/><path class="cls-4" d="M308.41,13.68,299.3,4.57l3.3-3.3a4.36,4.36,0,0,1,6.15,0l3,3a4.29,4.29,0,0,1,0,6.07Z"/><polygon class="cls-5" points="287.46 47.37 284.73 44.64 310.23 19.14 312.96 21.88 287.46 47.37"/><polygon class="cls-4" points="258.33 54.65 252.86 49.19 290.2 11.86 295.66 17.32 258.33 54.65"/><path class="cls-4" d="M240.12,72.86a21.43,21.43,0,0,0,17.12-6.2l.22-.21a22.79,22.79,0,0,1-10.93-10.93l-.21.22a21.43,21.43,0,0,0-6.2,17.12"/><path class="cls-5" d="M238.3,76a1.29,1.29,0,0,1-.91-2.2L239.21,72A1.29,1.29,0,0,1,241,73.77l-1.82,1.83a1.29,1.29,0,0,1-.91.37"/><rect class="cls-1" y="3.53" width="83.95" height="104.47"/><rect class="cls-4" x="5.6" y="12.86" width="72.75" height="22.39"/><rect class="cls-2" x="61.56" y="63.23" width="16.79" height="37.31"/><rect class="cls-3" x="5.6" y="42.71" width="14.92" height="16.79"/><rect class="cls-3" x="24.25" y="42.71" width="14.92" height="16.79"/><rect class="cls-3" x="42.91" y="42.71" width="14.92" height="16.79"/><rect class="cls-6" x="61.56" y="42.71" width="16.79" height="16.79"/><rect class="cls-3" x="5.6" y="63.23" width="14.92" height="16.79"/><rect class="cls-3" x="24.25" y="63.23" width="14.92" height="16.79"/><rect class="cls-3" x="42.91" y="63.23" width="14.92" height="16.79"/><rect class="cls-3" x="5.6" y="83.75" width="14.92" height="16.79"/><rect class="cls-3" x="24.25" y="83.75" width="14.92" height="16.79"/><rect class="cls-3" x="42.91" y="83.75" width="14.92" height="16.79"/></g></g></svg>