<svg xmlns="http://www.w3.org/2000/svg" viewBox="0 0 77.94 113.4"><defs><style>.cls-1{fill:#076673;}.cls-2{fill:#20d0c2;}.cls-3{fill:#fff;}.cls-4{fill:#0e7886;}.cls-5{fill:#ffca4f;}.cls-6{fill:#ecf0f1;}</style></defs><title>libro-sm</title><g id="Capa_2" data-name="Capa 2"><g id="Controles_bootstrap" data-name="Controles bootstrap"><path class="cls-1" d="M77.9,0V86H9.15C4.14,86,0,90.43,0,95.9v-86C0,4.48,4.14,0,9.15,0ZM0,96.51H0v0Z"/><path class="cls-2" d="M9.15,86H77.94a20,20,0,0,0,0,19.78H9.15c-5,0-9.11-4.44-9.11-9.91S4.1,86,9.15,86Z"/><path class="cls-3" d="M76.76,103.61c-1.86-4.71-1.74-9.88,0-15.42H10.71a7.71,7.71,0,0,0,0,15.42Z"/><path class="cls-4" d="M12.76,4.63H73.23V80.79H12.76Z"/><path class="cls-5" d="M69.06,113.4,61.69,109l-5.16,4.4V94.49H69.06V113.4Z"/><path class="cls-6" d="M30,38h30.9V40.7H30Z"/><path class="cls-6" d="M30,45.41h30.9v2.73H30Z"/><path class="cls-6" d="M30,52.85H51.94v2.73H30Z"/></g></g></svg>