<svg xmlns="http://www.w3.org/2000/svg" viewBox="0 0 251.23 136.81"><defs><style>.cls-1{fill:#076673;}.cls-2{fill:#20d0c2;}.cls-3{fill:#fff;}.cls-4{fill:#0e7886;}.cls-5{fill:#ffca4f;}.cls-6{fill:#ecf0f1;}</style></defs><title>libro-md</title><g id="Capa_2" data-name="Capa 2"><g id="Controles_bootstrap" data-name="Controles bootstrap"><path class="cls-1" d="M88.32,8.25v97.49H10.37C4.69,105.74,0,110.77,0,117V19.48C0,13.33,4.69,8.25,10.37,8.25ZM0,117.66H0v0Z"/><path class="cls-2" d="M10.37,105.74h78c-3.91,7.31-4,14.8,0,22.42h-78c-5.68,0-10.33-5-10.33-11.23S4.65,105.74,10.37,105.74Z"/><path class="cls-3" d="M87,125.71c-2.11-5.34-2-11.19,0-17.48H12.14a8.74,8.74,0,0,0,0,17.48Z"/><path class="cls-4" d="M14.46,13.5H83V99.84H14.46Z"/><path class="cls-5" d="M78.29,136.81l-8.35-5-5.85,5V115.38h14.2v21.43Z"/><path class="cls-6" d="M34.05,51.29h35v3.1h-35Z"/><path class="cls-6" d="M34.05,59.73h35v3.1h-35Z"/><path class="cls-6" d="M34.05,68.16H58.88v3.1H34.05Z"/><path class="cls-1" d="M202.07,54.79l49.16,50.4a108.87,108.87,0,0,1-8,13.78L191.1,65.51a4,4,0,0,1,.08-5.64l5.26-5.12a4,4,0,0,1,5.63,0Z"/><path class="cls-4" d="M212.27,40.76c-.25.43-.56.82-.86,1.25l-3,3.74.3.35a3.36,3.36,0,0,1,0,4.69L186.88,72a3.36,3.36,0,0,1-4.69,0l-.35-.34-3.78,3c-.35.26-.65.47-1,.69a3.28,3.28,0,0,1-.78,3.48h0a3.29,3.29,0,0,1-4.6,0L151.8,58.28a3.31,3.31,0,0,1,0-4.61h0a3.26,3.26,0,0,1,3.62-.6,8.24,8.24,0,0,1,.69-1l3-3.7-.43-.43a3.37,3.37,0,0,1,0-4.69l21.73-21.18a3.35,3.35,0,0,1,4.69.05l.39.38,3.83-2.92c.39-.3.82-.56,1.21-.82a3.23,3.23,0,0,1,.69-3.7h0a3.29,3.29,0,0,1,4.6,0l19.89,20.4a3.31,3.31,0,0,1,0,4.61h0a3.22,3.22,0,0,1-3.53.6Z"/><path class="cls-5" d="M206.55,52.73l-1.25,1.2L177.37,25.27l1.25-1.21ZM190.19,68.65h0L162.26,40,161,41.19,189,69.86l1.24-1.21Z"/><path class="cls-1" d="M121,125.55h76.23V114.79H121Z"/><path class="cls-5" d="M127.74,108.68h62.67a3.07,3.07,0,0,1,3.06,3v3.06H124.69v-3.06a3.06,3.06,0,0,1,3-3Z"/><path class="cls-3" d="M205.34,53.93,177.41,25.27,162.3,40l27.94,28.66,2.84-2.79,9.42-9.17Z"/><path d="M215.11,31.16a49,49,0,0,1,27.77-12.87l.13,1a49.38,49.38,0,0,0-14.64,4.13,48.14,48.14,0,0,0-12.57,8.44l-.69-.69ZM200.35,12.87h0A49,49,0,0,1,228.11,0l.13,1a48.94,48.94,0,0,0-14.63,4.13A48.14,48.14,0,0,0,201,13.56Zm19.8-5.42h0l-.3-1a45.65,45.65,0,0,0-8.48,3.83,43.12,43.12,0,0,0-7.49,5.55l.69.73a45.46,45.46,0,0,1,7.32-5.42,44.45,44.45,0,0,1,8.26-3.74Zm14.76,18.29h0l-.3-.95a45.65,45.65,0,0,0-8.48,3.83,44,44,0,0,0-7.49,5.55l.69.74a44.93,44.93,0,0,1,7.32-5.43A42.85,42.85,0,0,1,234.91,25.74Z"/></g></g></svg>