<svg xmlns="http://www.w3.org/2000/svg" viewBox="0 0 219.53 219.99"><defs><style>.cls-1{fill:#292c68;}.cls-2{fill:#fdfefe;}.cls-3{fill:#fff;}.cls-4{fill:none;stroke:#464141;stroke-miterlimit:10;stroke-width:2px;}.cls-5{fill:#e3e577;opacity:0.78;}.cls-5,.cls-6,.cls-7{isolation:isolate;}.cls-6{fill:#706146;opacity:0.85;}.cls-7{fill:#70c2d0;opacity:0.76;}</style></defs><title>Logo</title><g id="Capa_2" data-name="Capa 2"><g id="Capa_1-2" data-name="Capa 1"><path class="cls-1" d="M103,91.66c4.82-3,24.17,22.42,28.67,29a99.78,99.78,0,0,1,8.16,14.68l.93,2.22c1.75,4.39,6.53,15.81,6.18,28.82a60.1,60.1,0,0,1-12.08,34.8c-4.63,6-9.6,12.55-18.3,14.92-16.86,4.58-32.16-10.76-33.29-12a29.58,29.58,0,0,1-4.43-6.49c-6.79-13.52-3.14-32.32,5.56-43.86,3.26-4.35,8.74-9.47,14.14-20.12a61.46,61.46,0,0,0,4.31-10.17C108.09,106.07,99.82,93.64,103,91.66Z"/><path class="cls-2" d="M79.66,195.3A28.23,28.23,0,0,1,79,179.14c1.75-7,5.79-11.26,10.53-16.28a70.09,70.09,0,0,1,13.63-11.18c9-5.48,13.71-5.36,15-9.71a34.16,34.16,0,0,0,.59-11.07l-.08-.82c-1.17-9.25-6.06-20-6.92-21.91-1.67-3.61-4.07-8.43-4.19-8.62-2-4-2.22-4.2-2.14-4.27.82-.63,20.71,19.92,26.34,42,1.09,4.24,1.9,9.64-.35,15.19a19.51,19.51,0,0,1-7.81,9.33c-4.93,2.91-7.77,1.86-12.66,2.36-2,.2-16.78,1.79-23.39,11.77-5.47,8.28-3.26,19.23-.23,25.53,4,8.23,11,11.61,10.68,12S84.2,208.12,79.66,195.3Z"/><path class="cls-3" d="M137,135.91c.55-.12,6.22,10.48,6.33,24.74.12,16.47-7.26,36.71-23,44.17-2.68,1.28-10.14,4.85-17.06,1.59-6.21-2.95-11.42-11.11-8.81-17,1.43-3.31,5.09-5.56,8.58-6,5.63-.7,7.38,3.81,13.09,3.85s11-5.24,13.91-8.47c1.32-1.47,5.9-6.87,8-16.82C141.15,147.6,136.49,136,137,135.91Z"/><path class="cls-4" d="M109.76,1A108.78,108.78,0,0,0,1,109.76c0,1.25,0,2.49.08,3.73a7.83,7.83,0,0,0,0,1,10.49,10.49,0,0,1,.11,1.67c-1,57.18,50.66,102.4,108.57,102.4A108.77,108.77,0,1,0,109.76,1Z"/><ellipse class="cls-4" cx="110.15" cy="110.15" rx="77.69" ry="108.76"/><path class="cls-4" d="M175.53,112.68C174.75,161.27,144.26,219.07,110,219S45.05,160,45,110.54s30.69-109,65.1-109S176.38,61.64,175.53,112.68Z"/><path class="cls-4" d="M1,110.5c2.52,13.56,30.57,30.69,108.57,30.69,60.17,0,109-15.11,109-33.72"/><path class="cls-4" d="M8,71.58c3.54,9,13.25,13.75,21.68,17.64,21.59,9.4,44.78,12.11,67.93,13.28,24.36.78,47.94-.78,71.87-7,13-3.54,25.91-7.42,35.34-17.21A23.88,23.88,0,0,0,210,67.46"/><rect class="cls-5" x="23.69" y="43.22" width="47.35" height="47.35" rx="8.82"/><rect class="cls-6" x="46.91" y="68.24" width="45.56" height="45.57" rx="8.66"/><rect class="cls-7" x="15.37" y="80.32" width="45.56" height="45.57" rx="8.66"/></g></g></svg>