<?xml version="1.0" encoding="utf-8"?>
<!-- Generator: Adobe Illustrator 23.0.0, SVG Export Plug-In . SVG Version: 6.00 Build 0)  -->
<svg version="1.1" id="Capa_1" xmlns="http://www.w3.org/2000/svg" xmlns:xlink="http://www.w3.org/1999/xlink" x="0px" y="0px"
	 viewBox="0 0 480 480" style="enable-background:new 0 0 480 480;" xml:space="preserve">
<style type="text/css">
	.st0{fill:#F7E5BE;}
	.st1{fill:#FFB41F;}
	.st2{fill:#1CC8EB;}
	.st3{fill:#74D5E8;}
	.st4{fill:#FFFFFF;}
	.st5{fill:#FF826E;}
	.st6{fill:#FCD770;}
	.st7{fill:#B4DD7F;}
	.st8{fill:#E6E9ED;}
</style>
<path class="st0" d="M444.2,256h-1.7c-6.8,0-13.4,2.5-18.5,7L360,320h-88l47.8-13c8.5-2.3,15-9.1,17.1-17.6s-0.7-17.5-7.1-23.5
	s-15.6-7.9-23.9-5.2L224,288H104l-40,40l96,96l56-40h160l87-79.7c5.7-5.3,9-12.7,9-20.5C472,268.4,459.6,256,444.2,256z"/>
<g>
	<path class="st1" d="M375,32h16v16h-16V32z"/>
	<path class="st1" d="M391,16h16v16h-16V16z"/>
	<path class="st1" d="M407,32h16v16h-16V32z"/>
	<path class="st1" d="M391,48h16v16h-16V48z"/>
	<path class="st1" d="M463,8h16v16h-16V8z"/>
	<path class="st1" d="M399,96h16v16h-16V96z"/>
	<path class="st1" d="M71,88h16v16H71V88z"/>
	<path class="st1" d="M71,120h16v16H71V120z"/>
	<path class="st1" d="M87,104h16v16H87V104z"/>
	<path class="st1" d="M55,104h16v16H55V104z"/>
	<path class="st1" d="M9,54h16v16H9V54z"/>
	<path class="st1" d="M71,8h16v16H71V8z"/>
</g>
<path class="st2" d="M160,424L48,312L8,352l120,120l40-40L160,424z"/>
<path class="st3" d="M40,344c3.1-3.1,8.2-3.1,11.3,0L64,356.7c3.1,3.1,3.1,8.2,0,11.3s-8.2,3.1-11.3,0L40,355.3
	C36.9,352.2,36.9,347.1,40,344z"/>
<g>
	<path class="st4" d="M158.6,207.1v-85.8h119.5c1.4,1.1,3.1,2,4.9,2.5c-2.7,4.6-2,10.4,2.3,14.2l0.2,0.2c4.1,3.7,10.1,4.4,15,2.3v42
		l13.5-12.3v36.8H158.6z"/>
	<path class="st5" d="M287.1,170.3c0,13.5-12.1,24.5-27.1,24.5c-14.9,0-27.1-11-27.1-24.5s12.1-24.5,27.1-24.5
		C275,145.8,287.1,156.8,287.1,170.3z"/>
	<path class="st4" d="M314.1,23.3v52.1H314c-6,0-11.1,3.6-12.7,8.6c-5-2.4-11.4-1.8-15.7,2.1l-0.2,0.2c-4.3,3.9-5,9.6-2.3,14.2
		c-1.9,0.5-3.5,1.4-4.9,2.5H158.6V23.3H314.1z"/>
	<path class="st6" d="M172.1,35.6h47.3v12.3h-47.3V35.6z"/>
	<path class="st7" d="M278.1,121.3H158.6c-3.7,0-6.8-2.8-6.8-6.1v-6.1c0-3.4,3-6.1,6.8-6.1h119.5c-2.8,2.2-4.5,5.4-4.5,9v0.3
		C273.5,115.9,275.3,119.1,278.1,121.3z"/>
	<path class="st6" d="M327.7,140.6v42l-13.5-12.3l-13.5,12.3v-42c0.2-0.1,0.4-0.2,0.6-0.2c1.7,5,6.7,8.6,12.7,8.6h0.3
		c6,0,11.1-3.6,12.7-8.6C327.2,140.4,327.4,140.5,327.7,140.6z"/>
	<path class="st5" d="M345.2,123.8c2.7,4.6,2,10.4-2.3,14.2l-0.2,0.2c-4.1,3.7-10.1,4.4-15,2.3c-0.2-0.1-0.4-0.2-0.6-0.2
		c-1.7,5-6.7,8.6-12.7,8.6H314c-6,0-11.1-3.6-12.7-8.6c-0.2,0.1-0.4,0.2-0.6,0.2c-4.9,2.1-11,1.4-15-2.3l-0.2-0.2
		c-4.3-3.9-5-9.6-2.3-14.2c-1.9-0.5-3.5-1.3-4.9-2.5c-2.8-2.2-4.5-5.4-4.5-9V112c0-3.6,1.8-6.8,4.5-9c1.4-1.1,3.1-2,4.9-2.5
		c-2.7-4.6-2-10.4,2.3-14.2l0.2-0.2c4.3-3.9,10.7-4.5,15.7-2.1c1.7-5,6.7-8.6,12.7-8.6h0.3c6,0,11.1,3.6,12.7,8.6
		c5-2.4,11.4-1.8,15.7,2.1l0.2,0.2c4.3,3.9,5,9.6,2.3,14.2c5.5,1.5,9.5,6.1,9.5,11.5v0.3C354.7,117.7,350.7,122.3,345.2,123.8z"/>
	<path class="st8" d="M314.1,87.6c14.9,0,27.1,11,27.1,24.5s-12.1,24.5-27.1,24.5c-14.9,0-27.1-11-27.1-24.5S299.2,87.6,314.1,87.6z
		"/>
	<path class="st6" d="M327.7,112.1c0,6.8-6.1,12.3-13.5,12.3c-7.5,0-13.5-5.5-13.5-12.3s6.1-12.3,13.5-12.3
		C321.6,99.9,327.7,105.4,327.7,112.1z"/>
	<path d="M358.1,112c0-5.6-3.3-10.5-8.5-13.2c1.6-5.2,0.1-10.8-4.2-14.7l-0.2-0.2c-4.3-3.9-10.6-5.3-16.3-3.8
		c-2.4-3.8-6.4-6.5-11.3-7.4V20.3H155.2v80.2c-3.9,1.3-6.8,4.6-6.8,8.6v6.1c0,4,2.8,7.4,6.8,8.6v86.3h162.3v-32.4L331,190v-45.3
		c5.1,0.6,10.3-0.9,14.3-4.5c4.3-3.9,5.9-9.5,4.3-14.7C354.8,122.8,358.1,117.8,358.1,112z M340.3,88.2l0.3,0.2
		c3.1,2.8,3.8,7.1,1.7,10.6l-0.7,1.2c-3-5.6-8-10.2-14.3-12.9l1.3-0.6C332.5,84.8,337.2,85.4,340.3,88.2z M299.7,137.6
		c-3.9,1.9-8.6,1.3-11.7-1.5l-0.3-0.2c-3.1-2.8-3.8-7.1-1.7-10.6l0.7-1.2c3,5.6,8,10.2,14.3,12.9L299.7,137.6z M276.9,112
		c0-4,2.8-7.4,7.1-8.6l1.4-0.4c-1.1,2.9-1.8,5.9-1.8,9.1c0,3.2,0.6,6.3,1.8,9.1l-1.4-0.4C279.8,119.7,276.9,116.3,276.9,112z
		 M286.7,100.2L286,99c-2.1-3.5-1.4-7.8,1.9-10.8c3.1-2.8,7.8-3.4,11.7-1.5l1.3,0.6C294.8,90,289.7,94.6,286.7,100.2z M314.1,133.6
		c-13.1,0-23.7-9.6-23.7-21.4s10.6-21.4,23.7-21.4c13.1,0,23.7,9.6,23.7,21.4S327.2,133.6,314.1,133.6z M324.2,138.1l-0.4,1.3
		c-1.3,3.8-5.1,6.4-9.8,6.4c-4.4,0-8.2-2.6-9.5-6.4l-0.4-1.3c3.2,1,6.6,1.6,10.1,1.6C317.7,139.7,321.1,139.1,324.2,138.1z
		 M323.8,84.9l0.4,1.3c-3.2-1-6.6-1.6-10.1-1.6c-3.5,0-6.9,0.6-10.1,1.6l0.4-1.3c1.3-3.8,5.1-6.4,9.8-6.4
		C318.7,78.4,322.5,81,323.8,84.9z M310.7,26.4v46.3c-4.8,0.8-8.9,3.5-11.3,7.4c-5.7-1.5-12,0-16.5,4.1c-4.3,3.9-5.9,9.5-4.3,14.7
		c-0.6,0.3-1.2,0.7-1.8,1.1H161.9V26.4H310.7z M155.2,109.1c0-1.7,1.5-3.1,3.4-3.1h113c-0.9,1.9-1.4,4-1.4,6.3c0,2.1,0.5,4.1,1.4,6
		h-113c-1.9,0-3.4-1.4-3.4-3.1V109.1z M161.9,204v-79.6h114.9c0.6,0.4,1.2,0.7,1.8,1c-1.6,5.2-0.1,10.8,4.2,14.7l0.2,0.2
		c3.8,3.4,9,4.9,14.1,4.3V190l13.5-12.3V204H161.9z M314.1,166l-10.1,9.2v-26.3c2.9,1.9,6.4,3,10.3,3c3.7,0,7.2-1.1,10-3v26.3
		L314.1,166z M340.3,136.1c-3.1,2.8-7.8,3.4-11.7,1.5l-1.3-0.6c6.2-2.7,11.3-7.3,14.3-12.9l0.7,1.2
		C344.3,128.8,343.6,133,340.3,136.1z M344.2,120.9l-1.4,0.4c1.1-2.9,1.8-5.9,1.8-9.1c0-3.2-0.6-6.3-1.8-9.1l1.4,0.4
		c4.2,1.2,7.1,4.6,7.1,8.9C351.3,116.3,348.5,119.7,344.2,120.9z"/>
	<path d="M314.1,96.8c-9.3,0-16.9,6.9-16.9,15.3s7.6,15.3,16.9,15.3c9.3,0,16.9-6.9,16.9-15.3S323.4,96.8,314.1,96.8z M314.1,121.3
		c-5.6,0-10.1-4.1-10.1-9.2c0-5.1,4.6-9.2,10.1-9.2s10.1,4.1,10.1,9.2C324.3,117.2,319.7,121.3,314.1,121.3z"/>
	<path d="M222.8,32.5h-54.1v18.4h54.1V32.5z M216.1,44.8h-40.6v-6.1h40.6V44.8z"/>
	<path d="M229.6,32.5H304v6.1h-74.4V32.5z"/>
	<path d="M229.6,44.8H304v6.1h-74.4V44.8z"/>
	<path d="M168.7,57h84.5v6.1h-84.5V57z"/>
	<path d="M168.7,69.3h84.5v6.1h-84.5V69.3z"/>
	<path d="M168.7,81.5h84.5v6.1h-84.5V81.5z"/>
	<path d="M260,142.8c-16.8,0-30.4,12.4-30.4,27.6c0,15.2,13.7,27.6,30.4,27.6c16.8,0,30.4-12.4,30.4-27.6
		C290.5,155.1,276.8,142.8,260,142.8z M260,191.8c-13.1,0-23.7-9.6-23.7-21.4s10.6-21.4,23.7-21.4c13.1,0,23.7,9.6,23.7,21.4
		S273.1,191.8,260,191.8z"/>
	<path d="M168.7,191.8h40.6v6.1h-40.6V191.8z"/>
	<path d="M168.7,179.5h54.1v6.1h-54.1V179.5z"/>
	<path d="M168.7,167.3h54.1v6.1h-54.1V167.3z"/>
	<path d="M168.7,155h54.1v6.1h-54.1V155z"/>
	<path d="M168.7,142.8h54.1v6.1h-54.1V142.8z"/>
	<path d="M168.7,130.5h6.8v6.1h-6.8V130.5z"/>
	<path d="M182.2,130.5h40.6v6.1h-40.6V130.5z"/>
</g>
<path class="st1" d="M384,172.6h16v16h-16V172.6z"/>
<path class="st1" d="M108,173.2h16v16h-16V173.2z"/>
</svg>
