<svg xmlns="http://www.w3.org/2000/svg" viewBox="0 0 79.4 79.9"><defs><style>.cls-1{fill:#fff;}.cls-2{fill:#55c968;}</style></defs><title>recurso</title><g id="Capa_2" data-name="Capa 2"><g id="Controles_bootstrap" data-name="Controles bootstrap"><path class="cls-1" d="M40.1,0A39.3,39.3,0,0,0,6.3,59.4L0,79.9,21.7,74A39.3,39.3,0,1,0,40.1,0Z"/><path class="cls-2" d="M40.1,72.2a32.9,32.9,0,0,1-17.5-5.1h-.5L9.6,70.6l3.8-12.2A32.4,32.4,0,0,1,7.3,39.3,32.9,32.9,0,1,1,40.1,72.2Z"/><path class="cls-1" d="M33.7,29.6s1.1,1.8,0,3.2l-2.2,2.6s-1,.7,0,2.2,5.3,8,12.6,10.9a2.4,2.4,0,0,0,3.2-1.3l2.3-3s.6-.7,2.4,0l7.3,3.5s1,.3.8,1.8-.7,7.3-8.8,8c0,0-7.7.2-16.5-6.5A46.6,46.6,0,0,1,23.4,37.8a2.5,2.5,0,0,1-.4-.7A15.1,15.1,0,0,1,21.1,30c0-.3.1-.5.1-.8a8.2,8.2,0,0,1,5.2-7.6s3.2-.4,3.7,0Z"/></g></g></svg>