<?xml version="1.0" encoding="utf-8"?>
<!-- Generator: Adobe Illustrator 23.0.0, SVG Export Plug-In . SVG Version: 6.00 Build 0)  -->
<svg version="1.1" id="Layer_1" xmlns="http://www.w3.org/2000/svg" xmlns:xlink="http://www.w3.org/1999/xlink" x="0px" y="0px"
	 viewBox="0 0 512 512" style="enable-background:new 0 0 512 512;" xml:space="preserve">
<style type="text/css">
	.st0{fill:#076673;}
	.st1{fill:#0E7886;}
	.st2{fill:#FFCA4F;}
	.st3{fill:#20D0C2;}
	.st4{fill:#FFFFFF;}
	.st5{fill:#ECF0F1;}
</style>
<path class="st0" d="M372.1,250.9l114.2,117.1c-5.4,11.1-11.6,21.8-18.6,32L346.6,275.8c-3.6-3.7-3.5-9.6,0.2-13.1l12.2-11.9
	C362.6,247.2,368.5,247.3,372.1,250.9L372.1,250.9L372.1,250.9z"/>
<path class="st1" d="M395.8,218.3c-0.6,1-1.3,1.9-2,2.9l-7.1,8.7l0.7,0.8c2.9,3,2.9,7.9-0.1,10.9l-50.5,49.2
	c-3,2.9-7.9,2.9-10.9-0.1l-0.8-0.8l-8.8,6.9c-0.8,0.6-1.5,1.1-2.3,1.6c1,2.7,0.4,6-1.8,8.1l0,0c-3,2.9-7.8,2.8-10.7-0.1l-46.2-47.4
	c-2.9-3-2.8-7.8,0.1-10.7v0c2.3-2.2,5.7-2.7,8.4-1.4c0.5-0.8,1-1.5,1.6-2.2l7.1-8.6l-1-1c-2.9-3-2.9-7.9,0.1-10.9l50.5-49.2
	c3-2.9,7.9-2.9,10.9,0.1l0.9,0.9l8.9-6.8c0.9-0.7,1.9-1.3,2.8-1.9c-1.3-2.8-0.8-6.3,1.6-8.6l0,0c3-2.9,7.8-2.8,10.7,0.1l46.2,47.4
	c2.9,3,2.8,7.8-0.1,10.7l0,0C401.9,219,398.6,219.5,395.8,218.3L395.8,218.3z"/>
<path class="st2" d="M382.5,246.1l-2.9,2.8l-64.9-66.6l2.9-2.8L382.5,246.1z M344.5,283.1L344.5,283.1l-64.9-66.6l-2.9,2.8
	l64.9,66.6L344.5,283.1L344.5,283.1L344.5,283.1z"/>
<path class="st0" d="M226.3,26.6v52.1v174.4H45.2c-13.2,0-24,11.7-24,26.1V52.7c0-14.3,10.8-26.1,24-26.1
	C45.2,26.6,226.3,26.6,226.3,26.6z M21.1,280.8L21.1,280.8L21.1,280.8c0-0.5,0-1.1,0-1.6V280.8z"/>
<path class="st3" d="M45.2,253.1h181.2c-9.1,17-9.3,34.4,0,52.1H45.2c-13.2,0-24-11.7-24-26.1C21.1,264.9,31.9,253.1,45.2,253.1z"/>
<path class="st4" d="M223.3,299.5c-4.9-12.4-4.6-26,0-40.6h-174c-11.1,0-20.2,9.2-20.2,20.3s9.1,20.3,20.2,20.3H223.3z"/>
<path class="st1" d="M54.7,38.8H214v200.6H54.7V38.8z"/>
<path class="st2" d="M203,325.3l-19.4-11.6L170,325.3v-49.8h33L203,325.3L203,325.3z"/>
<g>
	<path class="st5" d="M100.2,126.6h81.4v7.2h-81.4C100.2,133.7,100.2,126.6,100.2,126.6z"/>
	<path class="st5" d="M100.2,146.2h81.4v7.2h-81.4C100.2,153.3,100.2,146.2,100.2,146.2z"/>
	<path class="st5" d="M100.2,165.8h57.7v7.2h-57.7C100.2,173,100.2,165.8,100.2,165.8z"/>
</g>
<path class="st0" d="M183.7,415.3h177.1v-25H183.7V415.3z"/>
<path class="st2" d="M199.4,376.1H345c3.9,0,7.1,3.2,7.1,7.1v7.1H192.3v-7.1C192.3,379.3,195.5,376.1,199.4,376.1L199.4,376.1z"/>
<g>
	<path class="st4" d="M379.7,248.9l-64.9-66.6l-35.1,34.3l64.9,66.6l6.6-6.5l21.9-21.3L379.7,248.9z"/>
	<path d="M402.4,196c8.9-8.3,19-15.1,29.8-20.1c11-5.1,22.7-8.4,34.7-9.8l0.3,2.3c-11.8,1.4-23.3,4.7-34,9.6
		c-10.6,4.9-20.5,11.5-29.2,19.6L402.4,196L402.4,196L402.4,196z M368.1,153.5L368.1,153.5c8.9-8.3,19-15.1,29.8-20.1
		c11-5.1,22.7-8.4,34.7-9.8l0.3,2.3c-11.8,1.4-23.3,4.7-34,9.6c-10.6,4.9-20.5,11.5-29.2,19.6L368.1,153.5z M414.1,140.9
		L414.1,140.9l-0.7-2.2c-6.9,2.3-13.5,5.3-19.7,8.9c-6.3,3.7-12.1,8-17.4,12.9l1.6,1.7c5.2-4.7,10.9-9,17-12.6
		C400.9,146.1,407.3,143.2,414.1,140.9L414.1,140.9z M448.4,183.4L448.4,183.4l-0.7-2.2c-6.9,2.3-13.5,5.3-19.7,8.9
		c-6.3,3.7-12.1,8-17.4,12.9l1.6,1.7c5.2-4.7,10.9-9,17-12.6C435.2,188.6,441.6,185.6,448.4,183.4z"/>
</g>
</svg>
