<?xml version="1.0" encoding="utf-8"?>
<!-- Generator: Adobe Illustrator 23.0.0, SVG Export Plug-In . SVG Version: 6.00 Build 0)  -->
<svg version="1.1" id="Capa_1" xmlns="http://www.w3.org/2000/svg" xmlns:xlink="http://www.w3.org/1999/xlink" x="0px" y="0px"
	 viewBox="0 0 958.3 842.7" style="enable-background:new 0 0 958.3 842.7;" xml:space="preserve">
<style type="text/css">
	.st0{fill:#80D8FF;}
	.st1{fill:#40C4FF;}
	.st2{fill:#FDD835;}
	.st3{fill:#BCAAA4;}
	.st4{fill:#D8D7DA;}
	.st5{fill:#ED593B;}
	.st6{fill:#81C784;}
	.st7{fill:#FBC02D;}
	.st8{fill:#A1887F;}
	.st9{fill:#ACABB1;}
	.st10{fill:#E23423;}
	.st11{fill:#4CAF50;}
	.st12{fill:#FFFFFF;}
	.st13{fill:#FFC71D;}
	.st14{fill:#BE4E11;}
	.st15{fill:#1E76D2;}
	.st16{fill:#D32144;}
	.st17{fill:#32AE66;}
</style>
<path class="st0" d="M628.9,163.5H298.2c22.1,0,40.1,17.9,40.1,40.1v90.2v366.7H669V203.6C669,181.5,651,163.5,628.9,163.5z"/>
<g>
	<path class="st1" d="M443.5,568.3c-30.4,0-55.1-24.7-55.1-55.1v-20h110.2v20C498.6,543.6,473.9,568.3,443.5,568.3z"/>
	<rect x="524.7" y="209.6" class="st1" width="144.3" height="330.6"/>
	<rect x="338.3" y="640.4" class="st1" width="330.6" height="20"/>
	<path class="st1" d="M443.5,605.4c0-22.1-18-40.1-40.1-40.1h-65.1v70.1h105.2L443.5,605.4L443.5,605.4z"/>
	<path class="st1" d="M298.2,163.5L298.2,163.5L298.2,163.5c-22.1,0-40.1,17.9-40.1,40.1v90.2h80.2v-90.2
		C338.3,181.5,320.4,163.5,298.2,163.5z"/>
</g>
<rect x="544.7" y="229.6" class="st2" width="210.4" height="290.6"/>
<g>
	<rect x="634.9" y="460.1" class="st3" width="30.1" height="30.1"/>
	<rect x="695" y="400" class="st3" width="30.1" height="90.2"/>
	<rect x="574.8" y="460.1" class="st3" width="30.1" height="30.1"/>
	<rect x="634.9" y="400" class="st3" width="30.1" height="30.1"/>
	<rect x="574.8" y="400" class="st3" width="30.1" height="30.1"/>
	<rect x="695" y="339.9" class="st3" width="30.1" height="30.1"/>
	<rect x="634.9" y="339.9" class="st3" width="30.1" height="30.1"/>
	<rect x="574.8" y="339.9" class="st3" width="30.1" height="30.1"/>
</g>
<rect x="574.8" y="259.7" class="st4" width="150.3" height="50.1"/>
<path class="st5" d="M258.2,513.2c0,19.4,15.7,35.1,35.1,35.1s35.1-15.7,35.1-35.1H258.2z"/>
<path class="st6" d="M408.4,513.2c0,19.4,15.7,35.1,35.1,35.1s35.1-15.7,35.1-35.1H408.4z"/>
<path class="st2" d="M423.5,615.4H313.3v-10c0-11.1,9-20,20-20h70.1c11.1,0,20,9,20,20L423.5,615.4L423.5,615.4z"/>
<rect x="544.7" y="500.2" class="st7" width="210.4" height="20"/>
<rect x="695" y="470.1" class="st8" width="30.1" height="20"/>
<polygon class="st9" points="574.8,259.7 574.8,279.7 705,279.7 705,309.8 725.1,309.8 725.1,259.7 "/>
<path class="st7" d="M313.9,600.4c-0.4,1.6-0.7,3.3-0.7,5v10h110.2v-10c0-1.7-0.2-3.4-0.7-5H313.9z"/>
<path class="st10" d="M293.2,531.2c-13.2,0-24.7-7.3-30.7-18h-4.4c0,19.4,15.7,35.1,35.1,35.1s35.1-15.7,35.1-35.1h-4.4
	C317.9,524,306.4,531.2,293.2,531.2z"/>
<path class="st11" d="M443.5,531.2c-13.2,0-24.7-7.3-30.7-18h-4.4c0,19.4,15.7,35.1,35.1,35.1s35.1-15.7,35.1-35.1h-4.4
	C468.2,524,456.7,531.2,443.5,531.2z"/>
<path d="M330.8,415h15V203.6c0-12.6-4.9-24-12.9-32.6h296c18,0,32.6,14.6,32.6,32.6v4h15v-4c0-26.2-21.4-47.6-47.6-47.6H298.2
	c-26.2,0-47.6,21.4-47.6,47.6v97.7h80.2V415z M265.7,286.3v-82.7c0-18,14.6-32.6,32.6-32.6s32.6,14.6,32.6,32.6v82.7H265.7z"/>
<polygon points="661.4,653 345.8,653 345.8,638.4 330.8,638.4 330.8,668 676.5,668 676.5,542.3 661.4,542.3 "/>
<path d="M537.2,222.1v305.6h225.4V222.1H537.2z M747.6,512.7H552.2V237.2h195.4V512.7z"/>
<path d="M627.4,497.7h45.1v-45.1h-45.1V497.7z M642.4,467.6h15v15h-15V467.6z"/>
<path d="M612.3,452.6h-45.1v45.1h45.1V452.6z M597.3,482.6h-15v-15h15V482.6z"/>
<path d="M687.5,497.7h45.1V392.5h-45.1V497.7z M702.5,407.5h15v75.1h-15V407.5z"/>
<path d="M627.4,437.5h45.1v-45.1h-45.1V437.5z M642.4,407.5h15v15h-15V407.5z"/>
<path d="M612.3,392.5h-45.1v45.1h45.1V392.5z M597.3,422.5h-15v-15h15V422.5z"/>
<path d="M687.5,377.4h45.1v-45.1h-45.1V377.4z M702.5,347.4h15v15h-15V347.4z"/>
<path d="M627.4,377.4h45.1v-45.1h-45.1V377.4z M642.4,347.4h15v15h-15V347.4z"/>
<path d="M612.3,332.3h-45.1v45.1h45.1V332.3z M597.3,362.4h-15v-15h15V362.4z"/>
<path d="M732.6,252.2H567.3v65.1h165.3V252.2z M717.5,302.3H582.3v-35.1h135.3L717.5,302.3L717.5,302.3z"/>
<path d="M333.3,577.8c-15.2,0-27.6,12.4-27.6,27.6v17.5H431v-17.5c0-15.2-12.4-27.6-27.6-27.6h-27.6V444.6h55.9l-30.8,67v1.6
	c0,23.5,19.1,42.6,42.6,42.6c23.5,0,42.6-19.1,42.6-42.6v-1.6l-37.8-82h-72.4V408h-15v21.5h-72.4l-37.8,82v1.6
	c0,23.5,19.1,42.6,42.6,42.6c23.5,0,42.6-19.1,42.6-42.6v-1.6l-30.8-67h55.9v133.3L333.3,577.8L333.3,577.8z M443.5,540.8
	c-12.6,0-23.2-8.5-26.5-20h53C466.7,532.3,456.1,540.8,443.5,540.8z M466.8,505.7h-46.7l23.3-50.7L466.8,505.7z M293.2,540.8
	c-12.6,0-23.2-8.5-26.5-20h53C316.4,532.3,305.8,540.8,293.2,540.8z M316.6,505.7h-46.7l23.3-50.7L316.6,505.7z M403.4,592.9
	c6.9,0,12.5,5.6,12.5,12.5v2.5h-95.2v-2.5c0-6.9,5.6-12.5,12.5-12.5H403.4z"/>
<path d="M381.9,199.6v17.8c-8.7,3.1-15,11.5-15,21.3c0,12.4,10.1,22.5,22.5,22.5c4.1,0,7.5,3.4,7.5,7.5c0,4.1-3.4,7.5-7.5,7.5h-19
	v15h11.5v16.5h15V290c8.7-3.1,15-11.5,15-21.3c0-12.4-10.1-22.5-22.5-22.5c-4.1,0-7.5-3.4-7.5-7.5c0-4.1,3.4-7.5,7.5-7.5h19v-15
	h-11.5v-16.5H381.9z"/>
<rect x="368.4" y="333.3" width="153.3" height="15"/>
<rect x="446.5" y="373.4" width="15" height="15"/>
<rect x="368.4" y="373.4" width="63.1" height="15"/>
<rect x="476.6" y="373.4" width="15" height="15"/>
<g>
	<rect x="281.7" y="192.6" class="st12" width="15" height="50.1"/>
	<rect x="281.7" y="257.7" class="st12" width="15" height="15"/>
	<rect x="429.5" y="187.1" class="st12" width="40.1" height="15"/>
	<rect x="514.7" y="187.1" class="st12" width="70.1" height="15"/>
	<rect x="484.6" y="187.1" class="st12" width="15" height="15"/>
	<rect x="599.8" y="187.1" class="st12" width="37.1" height="15"/>
	<rect x="534.7" y="542.8" class="st12" width="50.1" height="15"/>
	<rect x="504.6" y="542.8" class="st12" width="15" height="15"/>
	<rect x="507.1" y="294.8" class="st12" width="15" height="15"/>
	<rect x="507.1" y="239.7" class="st12" width="15" height="40.1"/>
	<rect x="630.4" y="570.3" class="st12" width="15" height="15"/>
	<rect x="577.8" y="622.9" class="st12" width="15" height="15"/>
	<polygon class="st12" points="630.4,622.9 607.8,622.9 607.8,637.9 645.4,637.9 645.4,600.4 630.4,600.4 	"/>
	<rect x="457.5" y="622.9" class="st12" width="15" height="15"/>
	<rect x="487.6" y="622.9" class="st12" width="50.1" height="15"/>
</g>
<path class="st13" d="M189.6,142c0,33.1-26.9,60-60,60s-60-26.9-60-60s26.9-60,60-60S189.6,108.9,189.6,142z"/>
<path class="st14" d="M129.6,170h-20v-16h20c2.2,0,4-1.8,4-4s-1.8-4-4-4c-11,0-20-9-20-20s9-20,20-20h20v16h-20c-2.2,0-4,1.8-4,4
	s1.8,4,4,4c11,0,20,9,20,20S140.7,170,129.6,170z"/>
<path class="st15" d="M386.6,48.7l11.3-11.3l11.3,11.3L397.9,60L386.6,48.7z"/>
<path class="st15" d="M364,48.7l11.3-11.3l11.3,11.3L375.3,60L364,48.7z"/>
<path class="st15" d="M364,71.3L375.3,60l11.3,11.3l-11.3,11.3L364,71.3z"/>
<path class="st15" d="M386.6,71.3L397.9,60l11.3,11.3l-11.3,11.3L386.6,71.3z"/>
<path class="st15" d="M152.6,299.7l11.3-11.3l11.3,11.3L163.9,311L152.6,299.7z"/>
<path class="st15" d="M130,299.7l11.3-11.3l11.3,11.3L141.3,311L130,299.7z"/>
<path class="st15" d="M130,322.3l11.3-11.3l11.3,11.3l-11.3,11.3L130,322.3z"/>
<path class="st15" d="M152.6,322.3l11.3-11.3l11.3,11.3l-11.3,11.3L152.6,322.3z"/>
<path class="st13" d="M939.6,142c0,30.9-25.1,56-56,56s-56-25.1-56-56s25.1-56,56-56S939.6,111.1,939.6,142z"/>
<path class="st14" d="M854,160.3l48-48l11.3,11.3l-48,48L854,160.3z"/>
<path class="st14" d="M874.2,121.3c0,6.2-5.1,11.3-11.3,11.3s-11.3-5.1-11.3-11.3s5.1-11.3,11.3-11.3S874.2,115.1,874.2,121.3z"/>
<path class="st14" d="M915.6,162.7c0,6.2-5.1,11.3-11.3,11.3s-11.3-5.1-11.3-11.3s5.1-11.3,11.3-11.3S915.6,156.5,915.6,162.7z"/>
<path class="st16" d="M716.7,127.7l22.6-22.6l11.3,11.3L728,139L716.7,127.7z"/>
<path class="st16" d="M716.7,116.3L728,105l22.6,22.6L739.3,139L716.7,116.3z"/>
<path class="st16" d="M884.7,290.7l22.6-22.6l11.3,11.3L896,302L884.7,290.7z"/>
<path class="st16" d="M884.7,279.3L896,268l22.6,22.6L907.3,302L884.7,279.3z"/>
<path class="st17" d="M594.6,809c-4.4,0-8-3.6-8-8s-3.6-8-8-8s-8-3.6-8-8s3.6-8,8-8s8-3.6,8-8s3.6-8,8-8s8,3.6,8,8s3.6,8,8,8
	s8,3.6,8,8s-3.6,8-8,8s-8,3.6-8,8S599.1,809,594.6,809z"/>
<path class="st17" d="M813.6,649c-4.4,0-8-3.6-8-8s-3.6-8-8-8s-8-3.6-8-8s3.6-8,8-8s8-3.6,8-8s3.6-8,8-8s8,3.6,8,8s3.6,8,8,8
	s8,3.6,8,8s-3.6,8-8,8s-8,3.6-8,8S818.1,649,813.6,649z"/>
<path class="st14" d="M716.6,743h16v24h-16V743z"/>
<path class="st14" d="M887.6,473h16v24h-16V473z"/>
<path class="st17" d="M100.6,591h16v16h-16V591z"/>
<path class="st17" d="M84.6,607h16v16h-16V607z"/>
<path class="st17" d="M100.6,623h16v16h-16V623z"/>
<path class="st17" d="M116.6,607h16v16h-16V607z"/>
<path class="st13" d="M410.8,766.3l48-48l11.3,11.3l-48,48L410.8,766.3z"/>
<path class="st13" d="M431.1,727.3c0,6.2-5.1,11.3-11.3,11.3s-11.3-5.1-11.3-11.3s5.1-11.3,11.3-11.3S431.1,721.1,431.1,727.3z"/>
<path class="st13" d="M472.5,768.7c0,6.2-5.1,11.3-11.3,11.3s-11.3-5.1-11.3-11.3s5.1-11.3,11.3-11.3S472.5,762.5,472.5,768.7z"/>
<path class="st13" d="M111.8,486.3l48-48l11.3,11.3l-48,48L111.8,486.3z"/>
<path class="st13" d="M132.1,447.3c0,6.2-5.1,11.3-11.3,11.3s-11.3-5.1-11.3-11.3s5.1-11.3,11.3-11.3S132.1,441.1,132.1,447.3z"/>
<path class="st13" d="M173.5,488.7c0,6.2-5.1,11.3-11.3,11.3s-11.3-5.1-11.3-11.3s5.1-11.3,11.3-11.3S173.5,482.5,173.5,488.7z"/>
<path class="st17" d="M252.6,733h16v16h-16V733z"/>
<path class="st17" d="M236.6,749h16v16h-16V749z"/>
<path class="st17" d="M252.6,765h16v16h-16V765z"/>
<path class="st17" d="M268.6,749h16v16h-16V749z"/>
</svg>
