<svg xmlns="http://www.w3.org/2000/svg" viewBox="0 0 211.8 43.85"><defs><style>.cls-1{fill:#13007c;}.cls-2{fill:#fcfefd;}.cls-3{fill:#fff;}.cls-4{fill:none;stroke:#454140;stroke-miterlimit:10;stroke-width:0.5px;}.cls-5{fill:#e9f675;opacity:0.78;}.cls-5,.cls-6,.cls-7{isolation:isolate;}.cls-6{fill:#6f6045;opacity:0.85;}.cls-7{fill:#6ec1cf;opacity:0.76;}.cls-8{fill:#343a40;}</style></defs><title>Recurso 1</title><g id="Capa_2" data-name="Capa 2"><g id="Controles_bootstrap" data-name="Controles bootstrap"><path class="cls-1" d="M20.54,18.28c1-.6,4.8,4.45,5.7,5.76A19.36,19.36,0,0,1,27.86,27s.1.22.19.44a14.38,14.38,0,0,1,1.23,5.73,11.89,11.89,0,0,1-2.41,6.92,7,7,0,0,1-3.63,3c-3.36.91-6.4-2.14-6.62-2.38a5.66,5.66,0,0,1-.88-1.29c-1.36-2.69-.63-6.43,1.1-8.72a20.85,20.85,0,0,0,2.81-4,11.66,11.66,0,0,0,.86-2C21.54,21.14,19.9,18.67,20.54,18.28Z"/><path class="cls-2" d="M15.89,38.88a5.62,5.62,0,0,1-.13-3.21,7.06,7.06,0,0,1,2.09-3.23,14.12,14.12,0,0,1,2.71-2.23c1.79-1.09,2.73-1.06,3-1.93a6.78,6.78,0,0,0,.12-2.2l0-.16a17.4,17.4,0,0,0-1.37-4.36c-.33-.72-.81-1.68-.84-1.71A7,7,0,0,1,21,19c.16-.13,4.12,4,5.24,8.35a4.82,4.82,0,0,1-.07,3,3.85,3.85,0,0,1-1.56,1.86,4.71,4.71,0,0,1-2.51.47c-.4,0-3.34.35-4.65,2.34a5.38,5.38,0,0,0,0,5.07,7.11,7.11,0,0,0,2.12,2.38A6.36,6.36,0,0,1,15.89,38.88Z"/><path class="cls-3" d="M27.3,27.08A9.29,9.29,0,0,1,28.56,32c0,3.27-1.45,7.29-4.57,8.78a4,4,0,0,1-3.39.31c-1.23-.58-2.27-2.21-1.75-3.39a2.2,2.2,0,0,1,1.71-1.19c1.12-.14,1.46.76,2.6.77a4.24,4.24,0,0,0,2.76-1.69,7,7,0,0,0,1.6-3.34A12.37,12.37,0,0,0,27.3,27.08Z"/><path class="cls-4" d="M21.88.25A21.64,21.64,0,0,0,.25,21.88c0,.24,0,.49,0,.74a.6.6,0,0,0,0,.19c0,.11,0,.22,0,.33C.08,34.51,10.36,43.5,21.88,43.5a21.63,21.63,0,0,0,0-43.25Z"/><ellipse class="cls-4" cx="21.95" cy="21.95" rx="15.45" ry="21.63"/><path class="cls-4" d="M35,22.46c-.15,9.66-6.21,21.15-13,21.14S9,31.86,9,22,15.1.37,21.94.36,35.12,12.31,35,22.46Z"/><path class="cls-4" d="M.25,22c.5,2.7,6.08,6.11,21.59,6.11,12,0,21.66-3,21.66-6.71"/><path class="cls-4" d="M1.65,14.28C2.35,16.07,4.28,17,6,17.79c4.29,1.87,8.9,2.41,13.51,2.64A49,49,0,0,0,33.76,19c2.58-.7,5.15-1.47,7-3.42a4.71,4.71,0,0,0,1-2.14"/><rect class="cls-5" x="4.76" y="8.65" width="9.42" height="9.41" rx="1.75"/><rect class="cls-6" x="9.38" y="13.62" width="9.06" height="9.06" rx="1.72"/><rect class="cls-7" x="3.11" y="16.02" width="9.06" height="9.06" rx="1.72"/><path class="cls-8" d="M48.92,15.57l1.83-.17a2.27,2.27,0,0,0,.66,1.35,2,2,0,0,0,1.37.43,2.1,2.1,0,0,0,1.36-.38,1.15,1.15,0,0,0,.46-.9.83.83,0,0,0-.19-.56,1.52,1.52,0,0,0-.68-.41c-.22-.07-.72-.21-1.5-.4a5.17,5.17,0,0,1-2.12-.92,2.45,2.45,0,0,1-.86-1.88,2.42,2.42,0,0,1,.41-1.33,2.54,2.54,0,0,1,1.16-.94,4.72,4.72,0,0,1,1.83-.32,3.89,3.89,0,0,1,2.64.77A2.7,2.7,0,0,1,56.22,12L54.34,12a1.61,1.61,0,0,0-.52-1,1.88,1.88,0,0,0-1.19-.32,2.16,2.16,0,0,0-1.28.34.68.68,0,0,0-.3.58.69.69,0,0,0,.28.56,4.81,4.81,0,0,0,1.73.62,9.19,9.19,0,0,1,2,.67,2.63,2.63,0,0,1,1,.95,2.73,2.73,0,0,1,.37,1.48,2.79,2.79,0,0,1-.44,1.5,2.7,2.7,0,0,1-1.26,1,5.36,5.36,0,0,1-2,.34A4,4,0,0,1,50.05,18,3.52,3.52,0,0,1,48.92,15.57Z"/><path class="cls-8" d="M62,16.46l1.77.3a2.92,2.92,0,0,1-1.08,1.48,3.18,3.18,0,0,1-1.85.51,3,3,0,0,1-2.6-1.14,3.85,3.85,0,0,1-.67-2.33,3.69,3.69,0,0,1,.88-2.62,2.88,2.88,0,0,1,2.21-.95,3,3,0,0,1,2.38,1,4.43,4.43,0,0,1,.83,3.05H59.36A1.81,1.81,0,0,0,59.79,17a1.38,1.38,0,0,0,1,.44,1,1,0,0,0,.7-.23A1.4,1.4,0,0,0,62,16.46Zm.1-1.81a1.77,1.77,0,0,0-.4-1.17,1.25,1.25,0,0,0-.93-.41,1.24,1.24,0,0,0-1,.43,1.63,1.63,0,0,0-.38,1.15Z"/><path class="cls-8" d="M67,18.6H65.21V11.86h1.65v1a3.07,3.07,0,0,1,.77-.9,1.41,1.41,0,0,1,.77-.21,2.2,2.2,0,0,1,1.17.34L69,13.6a1.6,1.6,0,0,0-.84-.29,1,1,0,0,0-.63.2,1.39,1.39,0,0,0-.41.75A10.52,10.52,0,0,0,67,16.52Z"/><path class="cls-8" d="M72.19,18.6l-2.71-6.74h1.87l1.27,3.44L73,16.45c.09-.29.16-.48.18-.58s.12-.38.19-.57l1.28-3.44h1.84L73.8,18.6Z"/><path class="cls-8" d="M77.57,11V9.3h1.78V11Zm0,7.65V11.86h1.78V18.6Z"/><path class="cls-8" d="M87.06,13.85l-1.76.32a1.27,1.27,0,0,0-.4-.79,1.21,1.21,0,0,0-.82-.27,1.35,1.35,0,0,0-1.06.46,2.39,2.39,0,0,0-.4,1.54,2.73,2.73,0,0,0,.41,1.7,1.31,1.31,0,0,0,1.08.49,1.17,1.17,0,0,0,.83-.29,1.7,1.7,0,0,0,.46-1l1.75.3a3.09,3.09,0,0,1-1.05,1.82,3.25,3.25,0,0,1-2.07.61,3.08,3.08,0,0,1-2.36-.93,3.59,3.59,0,0,1-.88-2.58,3.62,3.62,0,0,1,.88-2.6,3.13,3.13,0,0,1,2.39-.93,3.3,3.3,0,0,1,2,.53A2.93,2.93,0,0,1,87.06,13.85Z"/><path class="cls-8" d="M88.41,11V9.3H90.2V11Zm0,7.65V11.86H90.2V18.6Z"/><path class="cls-8" d="M91.61,15.14a3.64,3.64,0,0,1,.44-1.72,2.93,2.93,0,0,1,1.24-1.27,3.6,3.6,0,0,1,1.79-.44,3.38,3.38,0,0,1,2.51,1,3.44,3.44,0,0,1,1,2.51,3.48,3.48,0,0,1-1,2.54,3.34,3.34,0,0,1-2.48,1,3.9,3.9,0,0,1-1.77-.41,2.87,2.87,0,0,1-1.28-1.23A4.12,4.12,0,0,1,91.61,15.14Zm1.83.09a2.24,2.24,0,0,0,.48,1.54,1.56,1.56,0,0,0,2.34,0,2.25,2.25,0,0,0,.47-1.55,2.18,2.18,0,0,0-.47-1.52,1.54,1.54,0,0,0-2.34,0A2.19,2.19,0,0,0,93.44,15.23Z"/><path class="cls-8" d="M99.34,16.68l1.79-.27a1.31,1.31,0,0,0,.46.79,1.57,1.57,0,0,0,1,.27,1.75,1.75,0,0,0,1-.26.57.57,0,0,0,.23-.47.49.49,0,0,0-.12-.34,1.49,1.49,0,0,0-.6-.23,9.88,9.88,0,0,1-2.74-.87,1.75,1.75,0,0,1-.8-1.52,1.83,1.83,0,0,1,.7-1.47,3.2,3.2,0,0,1,2.14-.6,3.77,3.77,0,0,1,2.06.45,2.23,2.23,0,0,1,.92,1.33l-1.68.31a1,1,0,0,0-.41-.6,1.48,1.48,0,0,0-.86-.21,2,2,0,0,0-1,.2.42.42,0,0,0-.2.36.38.38,0,0,0,.18.32,6.56,6.56,0,0,0,1.66.51,4.89,4.89,0,0,1,2,.79,1.63,1.63,0,0,1,.56,1.33,2.06,2.06,0,0,1-.77,1.59,3.46,3.46,0,0,1-2.29.66,3.76,3.76,0,0,1-2.18-.55A2.56,2.56,0,0,1,99.34,16.68Z"/><path class="cls-8" d="M110.79,18.6V9.3h2.82l1.68,6.34L117,9.3h2.82v9.3H118V11.28l-1.85,7.32h-1.81l-1.84-7.32V18.6Z"/><path class="cls-8" d="M126.07,18.6v-1a2.5,2.5,0,0,1-1,.85,2.64,2.64,0,0,1-1.26.31,2.47,2.47,0,0,1-1.22-.29,1.76,1.76,0,0,1-.78-.84,3.76,3.76,0,0,1-.24-1.49V11.86h1.78V15a8.14,8.14,0,0,0,.1,1.74.94.94,0,0,0,.36.51,1.12,1.12,0,0,0,.66.19,1.47,1.47,0,0,0,.82-.25,1.3,1.3,0,0,0,.49-.63,6.94,6.94,0,0,0,.14-1.81V11.86h1.78V18.6Z"/><path class="cls-8" d="M129.58,18.6V9.3h1.78v9.3Z"/><path class="cls-8" d="M136.28,11.86v1.42h-1.22V16a5.47,5.47,0,0,0,0,1,.39.39,0,0,0,.15.23.54.54,0,0,0,.31.09,2.19,2.19,0,0,0,.71-.18l.16,1.39a3.54,3.54,0,0,1-1.41.26,2.21,2.21,0,0,1-.87-.16,1.16,1.16,0,0,1-.57-.42,1.56,1.56,0,0,1-.25-.69,8.32,8.32,0,0,1-.06-1.26V13.28h-.82V11.86h.82V10.52l1.79-1v2.38Z"/><path class="cls-8" d="M137.52,11V9.3h1.78V11Zm0,7.65V11.86h1.78V18.6Z"/><path class="cls-8" d="M140.35,11.86h1v-.51a3.42,3.42,0,0,1,.18-1.27,1.42,1.42,0,0,1,.67-.68,2.59,2.59,0,0,1,1.22-.26,4.79,4.79,0,0,1,1.5.23l-.25,1.24a3.32,3.32,0,0,0-.81-.1.74.74,0,0,0-.56.18,1.06,1.06,0,0,0-.17.7v.47h1.34v1.4h-1.34V18.6h-1.78V13.26h-1Z"/><path class="cls-8" d="M149.9,18.6v-1a2.57,2.57,0,0,1-1,.85,2.68,2.68,0,0,1-1.27.31,2.47,2.47,0,0,1-1.22-.29,1.76,1.76,0,0,1-.78-.84,3.76,3.76,0,0,1-.24-1.49V11.86h1.78V15a8.92,8.92,0,0,0,.1,1.74,1,1,0,0,0,.36.51,1.12,1.12,0,0,0,.66.19,1.44,1.44,0,0,0,.82-.25,1.32,1.32,0,0,0,.5-.63,7.66,7.66,0,0,0,.13-1.81V11.86h1.78V18.6Z"/><path class="cls-8" d="M159.53,18.6h-1.78V15.16a5,5,0,0,0-.12-1.41,1,1,0,0,0-.37-.5,1.05,1.05,0,0,0-.62-.18,1.43,1.43,0,0,0-.83.26,1.29,1.29,0,0,0-.5.67,5.85,5.85,0,0,0-.14,1.55V18.6h-1.78V11.86H155v1a2.71,2.71,0,0,1,2.23-1.14,2.65,2.65,0,0,1,1.07.21,1.72,1.72,0,0,1,.74.54,1.85,1.85,0,0,1,.35.75,5.29,5.29,0,0,1,.1,1.2Z"/><path class="cls-8" d="M167.22,13.85l-1.76.32a1.27,1.27,0,0,0-.4-.79,1.21,1.21,0,0,0-.82-.27,1.35,1.35,0,0,0-1.06.46,2.33,2.33,0,0,0-.4,1.54,2.81,2.81,0,0,0,.4,1.7,1.33,1.33,0,0,0,1.09.49,1.17,1.17,0,0,0,.83-.29,1.76,1.76,0,0,0,.46-1l1.75.3a3.14,3.14,0,0,1-1.05,1.82,3.26,3.26,0,0,1-2.08.61,3.07,3.07,0,0,1-2.35-.93,3.59,3.59,0,0,1-.88-2.58,3.62,3.62,0,0,1,.88-2.6,3.13,3.13,0,0,1,2.39-.93,3.24,3.24,0,0,1,1.95.53A2.89,2.89,0,0,1,167.22,13.85Z"/><path class="cls-8" d="M168.57,11V9.3h1.78V11Zm0,7.65V11.86h1.78V18.6Z"/><path class="cls-8" d="M171.77,15.14a3.64,3.64,0,0,1,.44-1.72,2.93,2.93,0,0,1,1.24-1.27,3.57,3.57,0,0,1,1.79-.44,3.38,3.38,0,0,1,2.51,1,3.44,3.44,0,0,1,1,2.51,3.48,3.48,0,0,1-1,2.54,3.35,3.35,0,0,1-2.49,1,3.89,3.89,0,0,1-1.76-.41,2.87,2.87,0,0,1-1.28-1.23A4.12,4.12,0,0,1,171.77,15.14Zm1.83.09a2.29,2.29,0,0,0,.47,1.54,1.57,1.57,0,0,0,2.35,0,2.3,2.3,0,0,0,.47-1.55,2.23,2.23,0,0,0-.47-1.52,1.55,1.55,0,0,0-2.35,0A2.24,2.24,0,0,0,173.6,15.23Z"/><path class="cls-8" d="M186.25,18.6h-1.78V15.16a5.62,5.62,0,0,0-.11-1.41,1,1,0,0,0-.37-.5,1.08,1.08,0,0,0-.62-.18,1.41,1.41,0,0,0-.83.26A1.25,1.25,0,0,0,182,14a5.85,5.85,0,0,0-.14,1.55V18.6h-1.78V11.86h1.66v1A2.7,2.7,0,0,1,184,11.71a2.74,2.74,0,0,1,1.08.21,1.85,1.85,0,0,1,.74.54,2.15,2.15,0,0,1,.35.75,6.09,6.09,0,0,1,.09,1.2Z"/><path class="cls-8" d="M189.4,13.92l-1.62-.29a2.46,2.46,0,0,1,.94-1.45,3.44,3.44,0,0,1,2-.47,4.28,4.28,0,0,1,1.78.28,1.78,1.78,0,0,1,.82.72,3.65,3.65,0,0,1,.24,1.6l0,2.08a7.08,7.08,0,0,0,.08,1.31,4.26,4.26,0,0,0,.32.9h-1.76a4,4,0,0,1-.17-.52,1,1,0,0,0-.07-.21,3.34,3.34,0,0,1-1,.66,2.8,2.8,0,0,1-1.12.22,2.28,2.28,0,0,1-1.64-.56,1.88,1.88,0,0,1-.6-1.43,2,2,0,0,1,.28-1,1.73,1.73,0,0,1,.76-.68,6,6,0,0,1,1.42-.42,9.57,9.57,0,0,0,1.73-.44V14a.93.93,0,0,0-.25-.74,1.57,1.57,0,0,0-1-.22,1.3,1.3,0,0,0-.74.19A1.29,1.29,0,0,0,189.4,13.92Zm2.38,1.45c-.22.07-.59.16-1.08.27a3.07,3.07,0,0,0-1,.31.72.72,0,0,0-.35.63.88.88,0,0,0,.28.65,1,1,0,0,0,.71.27,1.56,1.56,0,0,0,.92-.32,1.1,1.1,0,0,0,.42-.59,3.33,3.33,0,0,0,.07-.87Z"/><path class="cls-8" d="M195.29,18.6V9.3h1.79v9.3Z"/><path class="cls-8" d="M202.81,16.46l1.78.3a2.88,2.88,0,0,1-1.09,1.48,3.18,3.18,0,0,1-1.85.51,3,3,0,0,1-2.6-1.14,3.91,3.91,0,0,1-.66-2.33,3.73,3.73,0,0,1,.87-2.62,2.9,2.9,0,0,1,2.22-.95,3,3,0,0,1,2.37,1,4.38,4.38,0,0,1,.83,3.05h-4.47a1.86,1.86,0,0,0,.43,1.23,1.38,1.38,0,0,0,1,.44,1.06,1.06,0,0,0,.71-.23A1.39,1.39,0,0,0,202.81,16.46Zm.1-1.81a1.67,1.67,0,0,0-.4-1.17,1.22,1.22,0,0,0-.93-.41,1.25,1.25,0,0,0-1,.43,1.63,1.63,0,0,0-.37,1.15Z"/><path class="cls-8" d="M205.51,16.68l1.79-.27a1.31,1.31,0,0,0,.46.79,1.57,1.57,0,0,0,1,.27,1.75,1.75,0,0,0,1-.26.54.54,0,0,0,.23-.47.49.49,0,0,0-.12-.34,1.49,1.49,0,0,0-.6-.23,9.88,9.88,0,0,1-2.74-.87,1.75,1.75,0,0,1-.8-1.52,1.86,1.86,0,0,1,.7-1.47,3.2,3.2,0,0,1,2.14-.6,3.77,3.77,0,0,1,2.06.45,2.29,2.29,0,0,1,.93,1.33l-1.69.31a1,1,0,0,0-.41-.6,1.48,1.48,0,0,0-.86-.21,2,2,0,0,0-1,.2.42.42,0,0,0-.2.36.38.38,0,0,0,.18.32,6.7,6.7,0,0,0,1.67.51,5,5,0,0,1,2,.79,1.66,1.66,0,0,1,.55,1.33,2,2,0,0,1-.77,1.59,3.46,3.46,0,0,1-2.29.66,3.76,3.76,0,0,1-2.18-.55A2.56,2.56,0,0,1,205.51,16.68Z"/><path class="cls-8" d="M82.32,30.78l1.82.58a4.09,4.09,0,0,1-1.39,2.26,4.39,4.39,0,0,1-5.52-.52A4.84,4.84,0,0,1,76,29.63,5.09,5.09,0,0,1,77.24,26a4.13,4.13,0,0,1,3.15-1.28,3.87,3.87,0,0,1,2.78,1,3.7,3.7,0,0,1,1,1.71l-1.86.45a1.92,1.92,0,0,0-2-1.57,2.11,2.11,0,0,0-1.68.75,3.61,3.61,0,0,0-.65,2.4A3.87,3.87,0,0,0,78.61,32a2.05,2.05,0,0,0,1.65.75,1.88,1.88,0,0,0,1.29-.48A2.8,2.8,0,0,0,82.32,30.78Z"/><path class="cls-8" d="M87.08,29.52l-1.62-.29a2.46,2.46,0,0,1,.94-1.45,3.44,3.44,0,0,1,2-.47,4.23,4.23,0,0,1,1.77.28,1.81,1.81,0,0,1,.83.72,3.85,3.85,0,0,1,.23,1.6V32a7.08,7.08,0,0,0,.08,1.31,4.26,4.26,0,0,0,.32.9H89.84a4,4,0,0,1-.17-.52c0-.11-.06-.18-.07-.21a3.26,3.26,0,0,1-1,.66,2.72,2.72,0,0,1-1.11.22,2.28,2.28,0,0,1-1.64-.56,2,2,0,0,1-.32-2.45,1.73,1.73,0,0,1,.76-.68,6,6,0,0,1,1.42-.42,9.57,9.57,0,0,0,1.73-.44v-.17a.93.93,0,0,0-.25-.74,1.57,1.57,0,0,0-1-.22,1.28,1.28,0,0,0-.74.19A1.33,1.33,0,0,0,87.08,29.52ZM89.46,31q-.34.11-1.08.27a3.07,3.07,0,0,0-1,.31.72.72,0,0,0-.35.63.88.88,0,0,0,.28.65,1,1,0,0,0,.71.27,1.56,1.56,0,0,0,.92-.32,1.1,1.1,0,0,0,.42-.59,3.33,3.33,0,0,0,.07-.87Z"/><path class="cls-8" d="M99.1,34.2H97.32V30.76a5.62,5.62,0,0,0-.11-1.41,1,1,0,0,0-.38-.5,1,1,0,0,0-.61-.18,1.46,1.46,0,0,0-.84.26,1.29,1.29,0,0,0-.5.67,5.85,5.85,0,0,0-.14,1.55V34.2H93V27.46h1.66v1a2.7,2.7,0,0,1,2.22-1.14,2.74,2.74,0,0,1,1.08.21,1.85,1.85,0,0,1,.74.54,2.15,2.15,0,0,1,.35.75A6.09,6.09,0,0,1,99.1,30Z"/><path class="cls-8" d="M100.75,34.65l2,.24a.69.69,0,0,0,.23.49,1.33,1.33,0,0,0,.8.19,2.07,2.07,0,0,0,1.05-.21.86.86,0,0,0,.35-.45,2.46,2.46,0,0,0,.09-.82v-1a2.42,2.42,0,0,1-2,1.09,2.46,2.46,0,0,1-2.15-1.15,3.84,3.84,0,0,1-.63-2.26,3.74,3.74,0,0,1,.82-2.59,2.65,2.65,0,0,1,2-.89,2.47,2.47,0,0,1,2.06,1.1v-.95h1.67v6a6,6,0,0,1-.2,1.78,2.11,2.11,0,0,1-.55.93,2.41,2.41,0,0,1-1,.53,4.85,4.85,0,0,1-1.5.19,3.9,3.9,0,0,1-2.43-.59,1.84,1.84,0,0,1-.72-1.49A1.62,1.62,0,0,1,100.75,34.65Zm1.59-4a2.4,2.4,0,0,0,.42,1.57,1.25,1.25,0,0,0,1,.5,1.42,1.42,0,0,0,1.11-.51,2.21,2.21,0,0,0,.45-1.51,2.42,2.42,0,0,0-.43-1.56,1.39,1.39,0,0,0-1.1-.51,1.31,1.31,0,0,0-1,.5A2.32,2.32,0,0,0,102.34,30.69Z"/><path class="cls-8" d="M110.56,34.2h-1.78V27.46h1.65v1a3.07,3.07,0,0,1,.77-.9,1.44,1.44,0,0,1,.77-.21,2.23,2.23,0,0,1,1.18.34l-.56,1.55a1.6,1.6,0,0,0-.83-.29,1,1,0,0,0-.64.2,1.46,1.46,0,0,0-.41.75,10.52,10.52,0,0,0-.15,2.26Z"/><path class="cls-8" d="M113.91,26.55V24.9h1.79v1.65Zm0,7.65V27.46h1.79V34.2Z"/><path class="cls-8" d="M120.67,31.17,122.5,31a2.22,2.22,0,0,0,.67,1.35,2,2,0,0,0,1.36.43,2.13,2.13,0,0,0,1.37-.38,1.15,1.15,0,0,0,.46-.9.83.83,0,0,0-.19-.56,1.58,1.58,0,0,0-.68-.41c-.22-.07-.72-.21-1.5-.4a5.1,5.1,0,0,1-2.12-.92,2.45,2.45,0,0,1-.86-1.88,2.41,2.41,0,0,1,.4-1.33,2.57,2.57,0,0,1,1.17-.94,4.72,4.72,0,0,1,1.83-.32,3.88,3.88,0,0,1,2.63.77,2.7,2.7,0,0,1,.93,2l-1.88.08a1.6,1.6,0,0,0-.51-1,1.9,1.9,0,0,0-1.19-.32,2.2,2.2,0,0,0-1.29.34.71.71,0,0,0,0,1.14,4.73,4.73,0,0,0,1.72.62,9.32,9.32,0,0,1,2,.67,2.63,2.63,0,0,1,1,1,2.73,2.73,0,0,1,.37,1.48,2.79,2.79,0,0,1-.44,1.5,2.7,2.7,0,0,1-1.26,1,5.41,5.41,0,0,1-2,.34,4,4,0,0,1-2.71-.82A3.56,3.56,0,0,1,120.67,31.17Z"/><path class="cls-8" d="M129.81,34.2V32.42h1.78V34.2Z"/><path class="cls-8" d="M141.82,34.2h-2L139,32.09h-3.72l-.77,2.11h-2l3.62-9.3h2Zm-3.46-3.68-1.28-3.45-1.25,3.45Z"/><path class="cls-8" d="M152.12,34.2h-1.66v-1a2.63,2.63,0,0,1-1,.86,2.48,2.48,0,0,1-1.13.28,2.56,2.56,0,0,1-2-.93,3.79,3.79,0,0,1-.83-2.61,3.81,3.81,0,0,1,.8-2.61,2.65,2.65,0,0,1,2-.89,2.53,2.53,0,0,1,2,.94V24.9h1.78Zm-4.76-3.51a3.06,3.06,0,0,0,.3,1.56,1.36,1.36,0,0,0,1.2.7,1.33,1.33,0,0,0,1-.53,2.4,2.4,0,0,0,.43-1.56,2.62,2.62,0,0,0-.42-1.67,1.3,1.3,0,0,0-1.07-.52,1.33,1.33,0,0,0-1.06.51A2.27,2.27,0,0,0,147.36,30.69Z"/><path class="cls-8" d="M157.78,32.06l1.78.3a2.92,2.92,0,0,1-1.08,1.48,3.2,3.2,0,0,1-1.85.51A3.05,3.05,0,0,1,154,33.21a3.91,3.91,0,0,1-.66-2.33,3.73,3.73,0,0,1,.87-2.62,2.92,2.92,0,0,1,2.22-1,3,3,0,0,1,2.37,1,4.38,4.38,0,0,1,.83,3.05h-4.46a1.75,1.75,0,0,0,.43,1.23,1.33,1.33,0,0,0,1,.44,1,1,0,0,0,.7-.23A1.39,1.39,0,0,0,157.78,32.06Zm.1-1.81a1.67,1.67,0,0,0-.4-1.17,1.22,1.22,0,0,0-.92-.41,1.27,1.27,0,0,0-1,.43,1.63,1.63,0,0,0-.37,1.15Z"/><path class="cls-8" d="M170.69,30.78l1.82.58a4.09,4.09,0,0,1-1.39,2.26,4.39,4.39,0,0,1-5.52-.52,4.85,4.85,0,0,1-1.2-3.47A5.09,5.09,0,0,1,165.6,26a4.14,4.14,0,0,1,3.16-1.28,3.83,3.83,0,0,1,2.77,1,3.7,3.7,0,0,1,.95,1.71l-1.86.45a2,2,0,0,0-.69-1.15,1.94,1.94,0,0,0-1.27-.42,2.11,2.11,0,0,0-1.68.75,3.61,3.61,0,0,0-.64,2.4A3.94,3.94,0,0,0,167,32a2.08,2.08,0,0,0,1.65.75,1.88,1.88,0,0,0,1.29-.48A2.81,2.81,0,0,0,170.69,30.78Z"/><path class="cls-8" d="M174.11,34.2V32.42h1.78V34.2Z"/><path class="cls-8" d="M180.11,34.2l-3.33-9.3h2l2.35,6.88,2.28-6.88h2l-3.34,9.3Z"/></g></g></svg>